<?xml version="1.0" standalone="no"?>
<!DOCTYPE svg PUBLIC "-//W3C//DTD SVG 20010904//EN"
 "http://www.w3.org/TR/2001/REC-SVG-20010904/DTD/svg10.dtd">
<svg version="1.0" xmlns="http://www.w3.org/2000/svg"
 width="300.000000pt" height="300.000000pt" viewBox="0 0 300.000000 300.000000"
 preserveAspectRatio="xMidYMid meet">
<metadata>
Created by potrace 1.10, written by Peter Selinger 2001-2011
</metadata>
<g transform="translate(0.000000,300.000000) scale(0.100000,-0.100000)"
fill="#000000" stroke="none">
<path d="M830 2307 c-30 -18 -59 -43 -65 -56 -9 -22 -14 -23 -77 -16 -61 6
-68 4 -80 -14 -7 -12 -22 -21 -33 -21 -11 0 -53 -10 -92 -21 -90 -27 -144 -71
-170 -137 -39 -102 -7 -406 55 -512 50 -87 307 -316 341 -305 10 3 29 -8 49
-29 62 -66 698 -366 777 -366 13 0 39 -6 57 -14 33 -14 66 -23 163 -45 28 -7
55 -19 62 -27 12 -17 32 -22 183 -53 126 -26 312 -36 387 -21 129 26 192 55
273 123 53 45 59 63 60 162 0 193 -39 369 -106 477 -32 51 -111 124 -185 170
-45 27 -46 29 -53 90 -3 34 -11 67 -16 72 -6 6 -29 9 -53 7 -113 -9 -122 -8
-119 17 4 27 -32 144 -55 178 -30 46 -46 48 -131 11 -70 -31 -79 -33 -103 -21
-15 7 -32 27 -38 44 -7 23 -16 30 -30 28 -21 -3 -65 48 -115 135 -34 59 -48
65 -82 38 -15 -12 -32 -21 -38 -21 -6 0 -24 -11 -40 -24 -28 -22 -31 -22 -57
-7 -21 12 -27 21 -23 38 4 15 -2 28 -19 43 -14 12 -31 36 -38 52 -11 26 -16
29 -43 24 -17 -3 -49 -9 -71 -13 -22 -3 -56 -16 -75 -27 -26 -16 -51 -22 -100
-21 -64 0 -65 0 -82 35 -27 56 -34 60 -101 60 -52 0 -71 -5 -117 -33z m114 1
c5 -10 7 -10 12 0 3 6 16 12 29 12 19 0 29 -11 49 -57 15 -31 24 -58 21 -61
-2 -3 -7 3 -11 12 -3 9 -10 13 -15 10 -5 -3 -7 -9 -5 -13 3 -4 -3 -7 -12 -7
-69 0 -91 -5 -86 -18 3 -7 -3 -16 -12 -20 -22 -8 -33 2 -14 14 13 8 13 10 1
10 -8 0 -23 -7 -33 -17 -13 -12 -18 -13 -18 -3 0 10 -5 9 -18 -3 -21 -19 -38
-11 -20 10 9 11 7 12 -8 7 -13 -4 -10 3 11 22 16 15 30 32 30 38 0 6 6 22 14
35 11 20 11 22 -1 16 -11 -7 -11 -6 0 6 11 12 15 11 27 -4 7 -11 11 -25 8 -33
-6 -17 24 -54 44 -54 7 0 13 7 13 15 0 15 11 19 39 16 7 -2 20 0 28 4 14 5 14
8 -2 25 -18 20 -45 17 -45 -6 0 -18 -17 -18 -27 0 -4 7 -18 18 -30 25 -13 6
-23 16 -23 21 0 15 47 12 54 -2z m-108 -40 c-9 -5 -14 -13 -11 -19 4 -5 1 -9
-5 -9 -6 0 -9 -4 -5 -9 3 -5 0 -13 -6 -17 -8 -4 -9 -3 -5 4 4 7 1 12 -10 12
-15 0 -15 2 -1 23 8 12 20 21 26 20 6 -2 11 2 11 8 0 5 5 7 11 3 8 -5 6 -10
-5 -16z m564 12 c0 -5 0 -12 0 -15 0 -3 13 -17 30 -31 33 -28 38 -49 14 -58
-8 -3 -12 -2 -9 3 3 5 1 12 -5 16 -6 4 -7 11 -4 17 4 7 2 8 -5 4 -9 -6 -9 -11
-1 -21 9 -11 7 -18 -9 -31 -11 -10 -17 -22 -14 -28 3 -6 -8 2 -25 18 -36 34
-40 46 -14 46 12 0 8 8 -18 29 -19 16 -38 27 -42 25 -5 -3 -8 1 -8 8 0 10 10
13 34 10 18 -2 37 1 40 7 9 14 36 14 36 1z m-90 -82 c0 -6 -9 -3 -20 7 -18 17
-20 17 -14 2 3 -9 11 -18 18 -18 6 -1 17 -2 25 -3 7 0 20 -12 28 -26 13 -22
13 -23 0 -7 -13 15 -16 16 -27 2 -9 -11 -16 -12 -25 -5 -6 5 -16 6 -20 2 -5
-4 -5 -1 -1 6 6 10 11 10 24 1 15 -11 15 -11 0 6 -14 15 -20 16 -32 6 -11 -10
-17 -8 -30 10 -8 12 -13 26 -10 31 3 4 -1 8 -8 8 -7 0 -2 9 12 19 13 11 28 17
32 15 4 -3 8 1 8 8 0 7 9 -2 20 -20 11 -18 20 -38 20 -44z m-126 23 c4 -5 0
-11 -6 -14 -8 -2 -1 -10 15 -17 26 -13 33 -38 8 -32 -6 1 -11 -5 -11 -13 0 -8
-4 -15 -9 -15 -17 0 -62 43 -57 55 3 8 -4 11 -20 9 -13 -1 -22 2 -18 7 3 5 14
9 25 9 10 0 19 5 19 10 0 13 47 13 54 1z m-499 -12 c4 -5 12 -8 18 -6 20 6 56
-55 46 -75 -14 -25 -28 -22 -35 7 -4 14 -9 24 -12 21 -3 -3 -12 0 -20 7 -9 6
-4 -5 9 -25 13 -21 29 -38 36 -38 7 0 10 -6 7 -13 -3 -9 -19 0 -48 29 -35 36
-48 42 -71 38 -22 -4 -26 -2 -17 8 5 7 12 18 14 23 1 6 13 10 25 9 17 0 20 3
11 13 -8 10 -6 13 10 13 12 0 24 -5 27 -11z m85 -19 c6 -11 8 -20 5 -20 -4 0
1 -7 10 -16 9 -9 13 -19 10 -22 -3 -3 -6 -3 -8 -1 -2 2 -15 21 -30 42 -21 28
-24 37 -13 37 8 0 20 -9 26 -20z m931 -32 c12 -24 30 -55 40 -69 10 -14 16
-29 13 -32 -3 -3 4 -10 15 -17 21 -11 20 -30 0 -30 -6 0 -7 5 -3 11 3 6 -5 3
-20 -6 -14 -10 -26 -14 -26 -11 0 3 -16 0 -35 -8 -31 -13 -50 -6 -25 9 14 9
12 55 -2 60 -7 2 -26 6 -43 7 -27 3 -30 0 -28 -25 l2 -29 -19 23 c-23 26 -25
33 -7 23 6 -4 1 4 -12 19 l-23 25 38 25 c62 38 81 47 89 39 3 -4 6 -2 5 3 -9
42 17 31 41 -17z m-1131 12 c-6 -11 -15 -20 -20 -20 -19 0 -84 -52 -107 -85
l-24 -35 20 -26 c11 -14 18 -31 15 -38 -3 -7 3 -19 13 -26 15 -12 16 -12 6 0
-20 22 -15 35 5 17 10 -9 33 -20 50 -23 18 -4 35 -11 38 -15 9 -15 -7 -50 -19
-42 -7 4 -6 0 2 -10 7 -9 11 -25 8 -36 -3 -13 4 -23 24 -35 16 -10 26 -22 23
-28 -4 -6 -2 -8 4 -4 6 3 27 -3 47 -15 32 -19 41 -20 74 -10 51 15 62 14 55
-4 -5 -13 -9 -13 -22 -3 -13 11 -14 11 -7 -1 6 -11 3 -13 -16 -8 l-24 6 25
-19 c14 -11 28 -20 31 -20 4 0 9 -10 13 -22 3 -13 20 -40 37 -61 28 -34 35
-37 63 -31 55 12 70 11 116 -12 67 -33 88 -52 72 -62 -10 -7 -5 -12 18 -22 17
-7 33 -10 37 -6 3 3 -1 6 -10 6 -9 0 -17 5 -17 11 0 5 -5 7 -12 3 -7 -4 -8 -3
-4 4 9 15 67 -13 63 -29 -1 -7 5 -14 13 -16 13 -4 13 -3 0 6 -24 17 -2 13 25
-5 26 -17 103 -25 120 -13 16 12 65 19 65 9 0 -4 -11 -11 -24 -14 -27 -7 -54
-64 -33 -70 95 -27 115 -29 109 -13 -1 5 2 6 8 2 5 -3 10 -2 10 4 0 6 11 6 31
1 18 -5 35 -7 40 -5 13 9 39 -7 32 -19 -4 -6 1 -5 11 3 9 8 27 16 39 17 20 2
22 -2 19 -31 -4 -30 -1 -34 31 -46 20 -7 34 -16 31 -21 -3 -4 1 -5 9 -2 8 3
18 1 22 -5 11 -19 89 -6 131 21 7 5 14 0 17 -12 3 -10 0 -21 -7 -24 -6 -3 -1
-3 11 -1 26 7 75 -4 68 -15 -3 -5 3 -6 13 -3 11 2 26 -2 34 -10 9 -10 34 -15
69 -15 30 1 46 3 37 5 -22 5 -23 19 -3 27 8 3 15 1 15 -3 0 -5 18 -18 39 -29
22 -12 49 -27 61 -34 18 -11 28 -9 85 21 86 46 118 74 102 90 -6 6 3 5 21 -5
32 -16 34 -15 75 13 23 15 48 28 56 28 15 0 19 13 27 91 5 47 3 53 -23 73 -84
64 -123 90 -123 79 0 -6 -3 -8 -6 -5 -4 4 -2 13 5 21 9 11 8 15 -5 20 -9 4
-14 9 -11 12 7 7 59 -27 97 -62 14 -13 39 -35 57 -49 43 -34 83 -109 83 -154
0 -47 -10 -82 -21 -75 -5 3 -6 -1 -3 -9 3 -9 -15 -29 -48 -54 -72 -54 -77 -57
-93 -43 -12 10 -15 9 -15 -9 0 -22 -22 -31 -87 -35 -70 -5 -76 -6 -69 -13 10
-10 126 -3 148 8 14 8 21 3 33 -23 15 -32 15 -26 1 19 -6 19 -1 25 34 43 22
11 45 18 50 15 5 -3 12 -30 15 -60 4 -30 11 -55 15 -55 4 0 1 28 -6 63 -16 76
-17 80 -4 72 6 -3 10 1 10 9 0 8 9 20 19 26 13 6 22 26 27 55 8 59 24 48 18
-13 -2 -28 0 -42 5 -34 6 10 12 0 20 -32 11 -45 14 -103 4 -78 -4 10 -9 7 -18
-10 -7 -15 -8 -27 -2 -35 13 -18 25 -16 29 5 2 9 4 -12 5 -48 1 -35 -3 -72 -8
-82 -6 -10 -5 -19 1 -23 5 -3 10 -15 10 -26 0 -12 -4 -17 -11 -14 -6 4 -10 1
-8 -6 3 -26 -1 -40 -10 -35 -5 4 -12 0 -14 -6 -3 -7 -5 3 -6 22 0 28 2 31 9
15 6 -15 9 -7 9 30 1 28 6 56 12 62 8 8 8 19 1 40 l-10 28 -1 -30 c-1 -16 -8
-43 -16 -59 -8 -15 -16 -45 -16 -65 -1 -24 -6 -11 -15 42 -7 43 -15 84 -18 90
-4 7 -4 -4 -1 -23 3 -19 9 -72 12 -116 5 -76 4 -83 -16 -93 -19 -11 -21 -9
-22 16 -1 15 -5 39 -9 53 -6 17 -7 7 -5 -32 4 -55 3 -58 -25 -73 -38 -20 -40
-19 -41 13 l-2 27 -4 -27 c-5 -32 -23 -38 -23 -8 0 11 -4 20 -9 20 -5 0 -7
-13 -5 -30 4 -24 2 -30 -13 -30 -10 0 -28 -3 -40 -6 -20 -6 -23 -3 -23 24 0
17 -4 33 -9 36 -5 4 -7 -11 -4 -34 4 -26 2 -40 -6 -40 -6 0 -11 9 -11 20 0 11
-4 20 -9 20 -5 0 -7 -9 -4 -20 9 -33 -13 -22 -25 13 l-11 32 5 -30 c4 -29 3
-30 -35 -33 -39 -2 -40 -2 -54 45 l-15 48 2 -41 c0 -23 5 -39 10 -36 5 3 6 0
2 -6 -17 -27 -31 -10 -33 40 -1 28 -7 56 -12 61 -7 7 -8 -3 -4 -29 10 -62 9
-66 -14 -70 -15 -3 -23 1 -23 10 0 9 -7 12 -19 9 -17 -4 -20 3 -26 64 -3 37
-10 84 -15 103 -8 31 -9 29 -4 -15 8 -89 13 -180 7 -167 -2 6 -9 10 -14 6 -13
-8 -119 17 -119 28 0 5 5 6 10 3 6 -3 10 -2 10 4 0 16 -24 19 -38 4 -19 -18
-32 -16 -32 5 0 14 2 15 10 2 8 -13 10 -13 10 2 0 9 5 18 10 20 15 5 26 118
12 118 -6 0 -8 -15 -5 -40 5 -33 3 -39 -9 -35 -15 6 -28 54 -28 108 0 28 -15
37 -23 15 -3 -8 -9 -3 -16 12 l-12 25 6 -25 c2 -14 5 -31 5 -39 0 -11 3 -11
17 0 11 9 14 10 9 2 -4 -7 -3 -21 3 -31 13 -24 24 -119 12 -107 -5 6 -12 19
-15 30 -3 11 -3 0 0 -25 3 -25 2 -40 -3 -35 -4 6 -14 10 -22 10 -8 0 -18 12
-22 27 -4 15 -14 35 -23 44 -9 8 -16 30 -16 47 0 20 -3 27 -8 19 -6 -8 -13 -2
-24 22 -24 50 -32 101 -18 126 7 13 8 26 2 33 -5 7 -14 27 -20 46 l-12 33 31
-6 c17 -3 38 -6 47 -6 11 0 14 -10 10 -49 -5 -46 -28 -88 -42 -74 -3 4 -6 1
-6 -4 0 -6 5 -13 12 -15 8 -3 8 -9 1 -23 -8 -14 -7 -22 2 -32 21 -20 23 -16
17 33 -3 34 -2 45 7 40 6 -4 11 -1 11 9 0 9 3 14 8 12 4 -3 6 18 5 46 0 29 1
39 3 22 9 -62 26 -110 34 -94 11 19 0 115 -11 97 -7 -10 -9 -9 -9 5 0 17 25
24 34 8 3 -4 6 -36 8 -69 1 -34 5 -59 7 -56 3 3 5 33 4 67 l-1 62 8 -48 c12
-66 21 -72 13 -8 -4 35 -2 51 6 51 6 0 12 -17 12 -37 l2 -38 7 40 c7 42 16 34
23 -20 4 -27 4 -26 6 8 1 40 2 40 50 31 27 -6 31 -11 33 -43 1 -35 1 -35 5 -5
l4 31 95 -5 c66 -3 94 -1 94 7 0 7 -23 11 -65 11 -36 0 -141 14 -233 31 -194
35 -245 47 -253 61 -10 15 -157 34 -169 22 -8 -8 1 -11 26 -12 20 -1 42 -6 49
-12 9 -8 15 -7 19 2 5 10 7 10 12 0 3 -6 10 -10 14 -7 5 3 7 -4 5 -15 -3 -17
0 -20 15 -15 13 4 18 1 16 -9 -3 -20 -16 -33 -16 -16 0 10 -3 10 -15 0 -8 -7
-12 -16 -9 -21 3 -5 -6 -8 -19 -7 -17 2 -23 7 -19 16 3 10 0 13 -9 10 -8 -3
-14 -13 -14 -24 0 -16 6 -18 35 -16 19 1 42 10 52 19 19 17 28 14 32 -9 2 -7
6 -21 11 -31 7 -16 9 -72 5 -137 -1 -14 -6 -28 -12 -31 -6 -4 3 -6 18 -6 16 0
23 2 17 4 -15 5 -17 23 -3 23 5 0 13 -12 16 -28 4 -15 13 -35 19 -45 14 -20 9
-57 -7 -57 -6 0 -8 7 -4 15 3 8 0 15 -7 15 -8 0 -6 4 3 10 8 5 11 10 6 10 -6
0 -20 -9 -32 -21 l-22 -20 -42 21 c-23 12 -45 19 -48 16 -3 -3 1 -6 8 -6 7 0
11 -3 8 -6 -3 -3 -14 -1 -25 5 -10 5 -25 12 -33 14 -17 5 -33 58 -50 167 -7
41 -16 86 -21 100 -6 15 -6 44 0 73 7 41 6 49 -8 54 -64 19 -360 137 -356 141
3 3 -2 14 -12 24 -20 22 -10 23 23 2 13 -9 27 -14 30 -12 4 5 -60 48 -72 48
-3 0 -2 -5 2 -12 5 -8 1 -9 -12 -4 -12 4 -8 -3 11 -19 36 -32 31 -30 -112 34
-62 28 -116 51 -120 51 -17 0 -85 64 -109 101 -26 42 -40 48 -58 24 -9 -13
-21 -7 -76 37 -36 29 -76 65 -88 80 -13 16 -28 26 -32 23 -5 -3 -13 3 -19 12
-5 10 -11 16 -13 13 -2 -2 -18 6 -35 20 -22 16 -30 27 -23 35 6 7 2 15 -10 23
-16 10 -18 9 -14 -3 13 -33 -6 -12 -35 39 -24 41 -31 66 -31 106 0 48 3 55 43
95 33 33 60 48 122 68 44 14 81 26 83 27 1 0 -2 -9 -8 -20z m510 3 c56 -37 70
-55 59 -75 -6 -11 -13 -17 -16 -14 -3 3 -11 -1 -17 -10 -11 -14 -31 -21 -64
-23 -7 -1 -11 -4 -9 -8 4 -7 -25 -8 -70 -4 -7 0 -13 8 -13 18 0 14 2 14 21 -3
l21 -19 -21 38 c-11 21 -22 48 -22 60 -1 17 -2 18 -6 5 -2 -10 -12 -18 -21
-18 -34 0 33 50 78 59 25 5 47 9 50 10 3 1 17 -6 30 -16z m210 -47 c19 -3 42
-8 50 -10 8 -3 19 -5 24 -5 6 -1 0 -10 -12 -21 l-21 -20 -33 20 c-42 25 -62
25 -79 0 -9 -13 -19 -17 -27 -11 -10 6 -7 15 13 40 18 21 31 29 39 23 6 -5 27
-12 46 -16z m188 -1 c4 -20 4 -20 -11 0 -16 20 -16 20 -14 0 2 -16 -4 -20 -30
-20 l-32 -1 21 24 c26 27 61 26 66 -3z m-904 6 c3 -5 16 -7 28 -3 15 4 19 2
13 -7 -6 -10 -3 -11 14 -1 19 10 26 7 51 -20 17 -18 30 -36 30 -40 0 -5 -13
-23 -29 -41 -28 -31 -56 -33 -44 -4 3 8 0 15 -6 15 -6 0 -11 -4 -11 -9 0 -5
-3 -18 -6 -28 -5 -15 -4 -16 6 -3 10 13 11 13 7 0 -2 -8 -9 -16 -15 -16 -25
-3 -26 -6 -7 -14 18 -8 17 -9 -6 -7 -20 1 -25 5 -21 17 4 11 -1 10 -19 -5 -15
-12 -19 -14 -11 -4 11 14 9 18 -14 23 -14 4 -24 10 -21 13 3 3 0 12 -8 19 -18
19 -31 18 -15 -1 7 -8 9 -15 6 -15 -4 0 -1 -6 6 -14 7 -8 16 -12 21 -9 4 2 7
-4 7 -13 0 -14 -8 -10 -35 16 -23 23 -32 37 -25 44 5 5 10 16 10 24 0 12 -3
12 -17 1 -10 -7 0 6 22 29 44 47 64 52 83 21 7 -12 16 -18 19 -15 4 3 -4 17
-17 31 -13 14 -18 25 -12 25 6 0 13 -4 16 -9z m291 -18 c-5 -14 -3 -15 6 -6
13 13 55 -1 62 -21 12 -32 -42 -91 -59 -64 -4 6 -3 8 3 5 6 -4 10 1 9 11 0 10
6 16 16 16 10 -1 16 2 13 6 -3 5 1 11 7 13 7 3 3 6 -9 6 -13 1 -23 -3 -23 -9
0 -5 -7 -10 -15 -10 -8 0 -15 4 -15 8 0 10 -60 46 -66 39 -2 -2 13 -16 35 -31
28 -20 38 -34 37 -52 -1 -16 -6 -22 -14 -19 -8 3 -22 -5 -32 -17 -21 -26 -31
-21 -34 16 0 14 -4 26 -8 26 -4 0 -5 7 -2 15 5 12 9 11 23 -7 13 -15 22 -18
33 -12 14 8 14 10 0 24 -14 13 -15 12 -9 -5 6 -15 2 -13 -16 7 -22 25 -24 26
-35 8 -8 -14 -9 -27 -2 -45 15 -40 12 -41 -13 -4 l-23 34 21 37 c15 28 28 38
50 41 65 8 67 8 60 -10z m399 -35 c-4 -6 -2 -8 4 -5 13 9 44 -2 37 -13 -3 -5
10 -14 30 -21 l35 -13 -22 -23 c-17 -18 -19 -25 -8 -38 8 -9 8 -15 2 -15 -6 0
-13 4 -16 8 -8 13 -51 8 -70 -7 -9 -7 -16 -10 -16 -5 0 5 -4 4 -8 -3 -5 -8
-13 4 -21 33 -10 35 -11 51 -2 70 13 29 31 23 31 -9 0 -17 2 -19 10 -7 5 9 5
19 -2 27 -12 15 -2 47 12 38 6 -4 7 -11 4 -17z m256 18 c0 -2 3 -13 7 -23 5
-14 4 -16 -8 -8 -8 6 -7 3 3 -7 10 -9 18 -21 18 -26 0 -5 7 -12 15 -16 17 -6
72 -112 63 -121 -3 -4 -12 -7 -20 -9 -7 -1 -20 -6 -28 -11 -9 -6 -7 3 7 27 16
27 18 35 7 34 -8 -1 -20 -8 -27 -16 -10 -10 -9 -11 2 -5 9 5 12 3 9 -6 -3 -8
-11 -13 -17 -11 -6 1 -11 -3 -11 -9 0 -6 -14 -1 -30 11 -17 12 -28 26 -25 31
4 5 -4 5 -19 -1 -23 -8 -26 -6 -43 30 -10 22 -24 42 -31 44 -10 4 -10 1 -1
-17 6 -12 8 -19 4 -15 -5 4 -14 3 -21 -3 -23 -19 -28 12 -5 34 19 20 22 20 37
5 15 -15 19 -15 51 0 33 16 36 16 49 -3 8 -10 14 -25 14 -32 0 -7 7 -13 15
-13 22 0 18 12 -13 41 -28 26 -68 47 -57 29 9 -15 -11 -12 -24 4 -13 16 2 32
19 21 6 -4 9 -2 8 4 -2 5 6 17 17 25 20 15 35 20 35 12z m-105 -17 c4 -5 -1
-19 -10 -29 -14 -16 -20 -17 -36 -7 -18 11 -18 12 3 29 27 21 34 22 43 7z
m-229 -13 c18 -14 18 -15 1 -21 -19 -8 -50 12 -41 26 7 13 17 11 40 -5z m468
-15 c11 -17 -6 -41 -28 -41 -17 0 -18 2 -6 10 13 8 13 10 -1 10 -9 0 -19 7
-23 15 -4 11 2 15 24 15 16 0 31 -4 34 -9z m-523 -31 c22 0 38 -4 35 -8 -3 -5
-20 -7 -38 -6 l-33 3 30 -8 c17 -5 24 -9 18 -10 -7 0 -13 -7 -13 -15 0 -21
-26 -40 -33 -23 -3 8 -22 17 -41 21 -20 4 -36 11 -36 16 0 14 44 41 58 35 8
-3 32 -5 53 -5z m-380 -31 c6 -12 7 -19 1 -16 -5 4 -18 0 -28 -7 -14 -10 -24
-11 -38 -4 -19 10 -18 11 5 29 31 24 46 24 60 -2z m237 8 c6 -6 12 -19 14 -27
2 -8 9 -20 17 -26 19 -15 7 -44 -19 -44 -14 0 -19 -4 -14 -12 4 -6 3 -8 -4 -4
-6 3 -17 0 -24 -7 -7 -8 -21 -12 -31 -9 -11 3 -23 -1 -28 -9 -7 -11 -9 -11 -9
-1 0 7 -5 10 -12 6 -7 -4 -8 -3 -4 4 10 16 -4 63 -17 55 -7 -4 -8 0 -3 12 6
16 4 16 -10 4 -16 -13 -16 -12 -5 9 6 12 8 22 4 23 -11 1 99 37 118 38 9 1 21
-5 27 -12z m846 0 c-3 -8 2 -19 10 -26 9 -7 18 -28 22 -47 3 -19 11 -31 16
-28 18 11 -3 -40 -24 -61 -12 -11 -18 -14 -14 -7 4 6 4 12 -1 12 -4 0 -16 20
-26 45 -19 46 -42 61 -77 50 -12 -4 -20 -2 -20 5 0 6 -5 8 -11 4 -8 -5 -8 -9
1 -14 9 -5 5 -13 -11 -29 -26 -24 -35 -26 -44 -10 -4 6 2 13 14 16 12 3 21 9
21 14 0 5 -11 4 -24 -1 -19 -7 -26 -5 -30 7 -4 9 -4 18 -1 21 3 3 5 0 5 -6 0
-7 5 -12 10 -12 6 0 9 5 8 12 -2 6 32 24 77 40 90 31 107 34 99 15z m-638 -40
l13 -37 -40 -20 c-36 -19 -42 -19 -62 -5 -12 8 -17 15 -11 15 5 0 15 -5 22
-12 8 -8 12 -8 12 -1 0 6 -7 14 -16 17 -13 5 -11 13 17 45 19 22 38 38 43 37
5 -1 15 -19 22 -39z m887 -19 c3 -29 9 -66 12 -83 3 -19 2 -24 -3 -12 -4 10
-12 18 -17 17 -6 0 -11 8 -13 20 -2 11 -14 23 -27 26 -14 3 -27 14 -30 24 -6
18 -35 17 -35 -1 0 -4 7 -6 15 -3 22 9 19 -18 -5 -44 -21 -23 -36 -30 -25 -12
4 6 -4 9 -17 7 -17 -1 -24 4 -26 19 -2 17 8 26 54 48 31 15 59 25 61 22 3 -3
12 1 20 9 24 24 30 18 36 -37z m41 8 c9 -19 13 -42 9 -52 -4 -12 -3 -15 5 -10
7 4 12 3 12 -3 0 -5 3 -18 6 -28 5 -17 5 -17 -6 0 -6 9 -19 17 -29 17 -13 0
-20 10 -25 38 -13 80 0 97 28 38z m-724 9 c0 6 9 -5 20 -23 17 -28 23 -32 35
-22 12 10 18 10 30 0 8 -7 13 -16 10 -20 -3 -5 -1 -11 5 -15 5 -3 10 -1 10 6
0 8 3 9 13 0 8 -6 16 -8 19 -5 3 2 8 -2 11 -10 4 -9 1 -18 -5 -22 -7 -4 -8 -3
-4 4 5 8 0 11 -11 10 -35 -3 -54 2 -48 12 3 6 3 10 -2 11 -4 0 -17 3 -28 5
-11 3 -29 7 -40 8 -11 2 -19 10 -19 19 1 9 -2 15 -6 12 -10 -6 -22 24 -14 37
4 6 10 5 15 -3 5 -8 9 -9 9 -4z m-314 -6 c3 -6 1 -16 -4 -21 -13 -13 -45 8
-36 23 7 12 31 11 40 -2z m-399 -13 c0 -9 -7 -12 -16 -9 -11 4 -13 3 -6 -5 13
-14 57 -4 48 12 -3 6 -3 8 2 4 4 -4 16 -3 27 3 29 16 61 4 87 -32 16 -21 19
-30 9 -27 -8 4 -22 -2 -31 -13 -9 -10 -29 -21 -44 -25 -37 -9 -53 -22 -53 -46
0 -11 -4 -16 -11 -12 -8 4 -9 -1 -5 -17 3 -13 3 -18 0 -11 -3 6 -9 10 -14 7
-4 -3 -6 3 -3 14 3 10 0 22 -6 25 -7 4 -8 1 -5 -8 10 -26 -4 -18 -21 12 -14
23 -16 24 -12 5 3 -13 1 -23 -4 -23 -5 0 -9 10 -9 23 0 18 -2 19 -10 7 -8 -12
-10 -10 -10 8 0 13 -4 20 -10 17 -9 -6 -3 53 7 64 2 3 17 -12 34 -32 17 -20
40 -42 52 -48 16 -9 14 -3 -11 27 -23 28 -28 40 -19 46 9 7 8 8 -3 7 -47 -5
-55 14 -12 29 38 15 49 14 49 -2z m627 8 c32 -12 17 -32 -21 -29 -52 4 -51 4
-23 20 30 17 25 16 44 9z m-922 -121 c11 -12 18 -29 15 -37 -3 -8 -2 -27 3
-43 8 -27 8 -27 9 10 1 20 4 37 7 37 12 0 104 -86 104 -98 0 -7 5 -10 11 -6 7
4 9 -11 5 -52 -5 -47 -4 -53 4 -29 6 17 11 40 12 53 2 21 3 22 15 6 7 -10 14
-14 14 -8 2 19 18 -72 17 -101 -1 -29 -1 -29 -8 5 l-7 35 -2 -32 c-1 -27 4
-35 30 -48 31 -16 31 -16 23 7 -4 13 -7 37 -6 53 1 25 0 27 -8 10 -6 -14 -9
-15 -9 -5 -1 8 -4 26 -8 39 -6 22 -5 22 13 7 10 -8 26 -21 36 -28 22 -17 32
-187 11 -195 -17 -7 -13 -120 5 -127 6 -3 12 -11 12 -18 0 -7 -17 5 -37 26
-21 21 -42 38 -48 38 -21 0 -33 20 -28 48 2 18 0 30 -6 30 -6 0 -11 10 -11 23
0 17 -2 19 -9 8 -6 -9 -4 -23 6 -38 8 -13 13 -23 9 -23 -14 0 -21 5 -18 14 2
5 -4 6 -12 3 -20 -8 -46 24 -47 59 -1 28 -1 28 -8 4 l-7 -24 -24 34 c-13 19
-28 37 -32 38 -9 4 -11 83 -2 106 3 9 10 13 15 10 5 -3 9 12 9 33 l-1 38 -13
-38 c-8 -20 -18 -43 -23 -50 -6 -6 -9 -25 -7 -42 2 -16 0 -23 -3 -15 -3 8 -12
23 -21 33 -8 9 -12 17 -8 17 3 0 0 13 -9 30 -16 32 -20 66 -7 74 5 3 7 -9 4
-27 -2 -22 -1 -28 6 -18 7 10 10 6 10 -14 0 -14 5 -32 12 -38 10 -9 12 -8 7 6
-4 10 -1 17 6 18 9 0 9 2 0 6 -7 2 -13 13 -13 24 0 10 -6 19 -12 19 -9 0 -8 3
2 10 13 8 12 12 -7 29 -11 11 -24 17 -29 13 -4 -4 -3 0 2 8 5 8 8 38 7 65 -1
28 0 44 3 38 3 -7 10 -13 15 -13 4 0 -3 16 -16 36 -14 20 -25 44 -25 52 0 8
12 -3 26 -24 14 -21 35 -49 46 -61z m1394 83 c8 -8 14 -21 14 -28 0 -8 5 -19
12 -26 23 -23 -15 -13 -54 13 -24 16 -35 30 -32 40 8 19 41 19 60 1z m-663
-39 c24 -19 21 -32 -8 -45 -19 -9 -25 -9 -25 1 -1 11 -34 57 -42 57 -2 0 -5
-10 -5 -22 -2 -19 0 -20 8 -8 8 12 10 12 7 1 -2 -8 -12 -15 -21 -17 -9 -1 -14
2 -11 7 3 6 0 17 -7 25 -13 16 -13 16 16 32 20 10 46 1 88 -31z m193 -2 c12
-8 25 -10 30 -5 5 5 27 10 49 12 36 2 40 1 37 -20 -4 -25 13 -30 22 -7 5 14
10 13 36 -6 30 -23 32 -29 8 -33 -7 -1 -19 -6 -27 -10 -10 -7 -12 -5 -7 5 4 8
0 5 -8 -5 -13 -16 -16 -16 -16 -5 0 9 -6 16 -14 16 -8 0 -12 -6 -9 -13 8 -20
-25 -74 -42 -68 -8 3 -14 9 -13 12 3 11 -13 56 -25 71 -6 7 -12 20 -13 28 -2
8 -6 18 -10 21 -4 4 -4 -1 -1 -10 4 -12 0 -18 -15 -20 -13 -2 -25 -15 -32 -34
-13 -36 -33 -58 -58 -62 -20 -3 -22 6 -8 28 6 10 10 11 10 3 0 -7 5 -13 10
-13 6 0 10 6 10 14 0 17 -25 15 -42 -2 -17 -17 -28 -15 -28 6 0 14 -2 15 -10
2 -5 -8 -10 -12 -10 -8 0 3 -3 14 -7 24 -5 13 -3 15 7 9 9 -5 11 -4 6 3 -8 13
46 97 66 105 14 5 70 -16 104 -38z m734 15 c0 -12 -38 -23 -51 -14 -9 5 -7 11
5 20 18 13 46 9 46 -6z m-430 -10 c0 -5 -12 -22 -26 -37 l-26 -28 7 25 c4 14
7 30 7 35 2 13 38 17 38 5z m-770 -15 c0 -2 -5 -16 -11 -32 -10 -27 -11 -28
-26 -8 -13 16 -15 17 -10 3 5 -14 1 -18 -16 -18 -15 0 -18 -3 -9 -8 9 -6 6
-11 -10 -19 -46 -22 -61 -24 -54 -7 3 8 6 25 7 37 0 12 3 16 6 10 5 -15 33
-18 33 -4 0 5 -6 11 -12 14 -7 2 -1 5 15 6 62 4 65 5 62 23 -3 11 1 15 11 11
8 -3 14 -7 14 -8z m930 -42 c60 -54 68 -78 18 -52 -19 9 -21 9 -10 -2 17 -18
15 -30 -5 -27 -10 2 -17 -2 -16 -8 1 -7 -8 -20 -20 -30 -22 -19 -22 -19 -4 2
9 11 14 23 11 27 -8 7 -35 -3 -30 -12 2 -3 -7 -14 -21 -24 -23 -18 -24 -18
-21 -1 2 10 -6 23 -17 29 -25 13 -30 34 -7 30 9 -1 16 -7 15 -13 -5 -21 26
-20 44 1 12 15 13 18 2 9 -13 -10 -21 -9 -41 7 -16 13 -29 16 -38 11 -8 -5
-17 -7 -22 -4 -9 6 1 34 14 34 5 0 6 -5 2 -12 -4 -7 -3 -8 5 -4 6 4 9 12 6 17
-4 5 10 18 29 30 50 29 45 34 -6 7 -24 -13 -47 -23 -53 -23 -5 0 -14 -4 -18
-10 -5 -6 -7 -4 -4 5 3 13 98 70 116 70 4 0 36 -26 71 -57z m-775 17 c-6 -10
25 -37 50 -43 11 -3 -8 -4 -43 -3 -51 2 -65 6 -77 23 -16 23 -5 40 17 27 6 -4
8 -3 4 4 -3 6 2 12 11 14 20 5 45 -10 38 -22z m951 9 c10 -17 -14 -27 -54 -23
l-35 3 36 -30 c25 -21 37 -39 37 -56 0 -25 0 -25 18 -5 9 12 34 24 55 28 31 5
37 3 37 -10 0 -10 -5 -14 -11 -10 -7 4 -9 0 -5 -14 6 -17 2 -20 -34 -20 -23
-1 -47 -6 -55 -12 -10 -8 -14 -8 -17 2 -3 8 -7 6 -11 -6 -4 -10 -3 -15 3 -11
6 3 10 -1 10 -9 0 -8 -5 -18 -12 -22 -6 -4 -8 -3 -5 3 4 6 0 14 -8 17 -11 4
-15 19 -14 56 2 31 -3 56 -11 63 -10 10 -11 9 -5 -3 6 -12 5 -12 -4 -4 -19 17
-9 47 19 61 31 16 57 16 66 2z m-1042 -31 c-2 -4 4 -12 15 -17 38 -21 35 -47
-14 -116 -26 -36 -51 -67 -55 -70 -16 -10 -60 67 -53 93 4 18 3 23 -6 17 -27
-16 19 53 60 89 31 29 43 35 50 25 4 -7 6 -16 3 -21z m1165 -6 c30 -25 32 -30
26 -65 -5 -27 -12 -37 -22 -33 -9 4 -11 2 -7 -6 4 -6 3 -8 -3 -5 -17 11 -22
77 -5 77 7 0 10 5 6 11 -3 6 -16 8 -27 5 -13 -3 -25 1 -33 12 -7 9 -16 13 -20
9 -5 -4 -2 -12 6 -17 10 -6 -1 -8 -32 -7 -47 3 -81 17 -40 17 29 0 53 11 46
21 -3 5 12 9 33 9 28 0 48 -8 72 -28z m81 -3 c11 -6 12 -8 1 -9 -7 0 -11 -6
-8 -13 3 -8 1 -20 -4 -28 -8 -11 -9 -11 -7 3 2 9 -1 17 -5 17 -10 0 -36 32
-37 44 0 9 34 1 60 -14z m-850 0 c0 -5 5 -7 10 -4 6 3 10 -2 10 -12 0 -11 5
-24 12 -31 20 -20 2 -24 -31 -7 -22 11 -31 23 -31 40 0 16 6 25 15 25 8 0 15
-5 15 -11z m256 -11 c10 -12 13 -18 6 -14 -11 7 -12 4 -3 -13 7 -11 14 -21 17
-21 3 0 2 6 -1 13 -9 17 53 -54 66 -76 7 -13 6 -19 -6 -23 -8 -3 -13 -10 -10
-14 3 -4 -4 -19 -16 -31 -11 -13 -18 -19 -14 -12 4 9 -4 11 -27 7 -18 -3 -44
-7 -58 -7 -14 -1 -29 -6 -33 -12 -5 -6 -7 -4 -4 5 2 8 9 15 15 15 5 0 14 5 19
10 4 6 4 7 -1 3 -5 -4 -15 -3 -23 3 -7 6 -13 8 -13 4 0 -4 -7 -1 -17 6 -15 13
-15 12 -3 -11 12 -23 12 -24 -3 -11 -10 7 -17 19 -17 26 0 7 -11 20 -25 29
-23 15 -38 45 -15 31 5 -3 8 0 5 7 -3 7 3 23 13 36 l17 22 44 -55 c24 -30 48
-55 53 -55 10 0 -41 68 -67 90 -23 19 -19 26 25 39 21 6 42 16 45 21 8 13 9
13 31 -12z m-450 -39 c54 -14 60 -23 39 -55 -18 -27 -44 -26 -78 4 -28 24 -11
26 27 3 20 -13 37 -18 40 -12 4 5 1 13 -6 18 -13 8 -18 9 -40 12 -7 1 -24 10
-38 21 -21 16 -22 20 -7 20 10 0 38 -5 63 -11z m-70 -14 c10 -8 15 -15 10 -15
-5 0 0 -10 11 -22 24 -27 27 -59 5 -50 -10 3 -13 1 -8 -6 4 -7 2 -12 -3 -12
-6 0 -10 -3 -10 -7 4 -27 -1 -35 -16 -23 -13 11 -15 10 -12 -1 2 -8 2 -11 0
-7 -2 4 -10 5 -18 2 -24 -10 -56 15 -51 39 9 48 17 58 35 45 14 -11 14 -11 3
4 -11 14 -11 21 3 42 20 30 24 31 51 11z m1264 11 c0 -2 -8 -23 -19 -47 -10
-24 -21 -62 -24 -84 -6 -48 6 -24 23 44 9 34 14 41 22 30 6 -10 7 -7 2 11 -6
22 -5 23 10 11 24 -20 18 -90 -7 -74 -6 3 -7 1 -3 -5 4 -6 -1 -23 -10 -37 -10
-16 -14 -34 -10 -50 4 -14 2 -25 -3 -25 -5 0 -12 11 -15 25 -7 27 -34 33 -55
13 -10 -11 -12 -8 -10 12 2 16 -5 35 -19 50 -12 13 -22 31 -22 39 0 9 -7 28
-14 43 -14 26 -13 28 7 33 20 4 59 8 125 13 12 1 22 0 22 -2z m39 -13 c0 -10
2 -31 5 -48 l6 -30 -10 29 c-5 16 -14 33 -21 37 -6 4 -8 12 -5 18 11 17 25 13
25 -6z m-474 -14 c4 -5 -1 -19 -11 -30 -9 -10 -13 -19 -9 -19 5 0 6 -2 3 -5
-6 -6 -65 22 -73 35 -3 5 3 13 12 19 24 14 70 14 78 0z m-532 -17 c10 -10 14
-22 10 -27 -5 -4 -3 -5 3 -2 12 7 74 -55 74 -73 0 -6 4 -9 8 -6 5 3 9 -1 9 -9
0 -8 -3 -12 -7 -10 -3 2 -24 -5 -45 -16 -22 -10 -30 -16 -17 -13 12 3 22 1 22
-4 0 -14 -26 -33 -34 -25 -4 4 -4 0 -1 -9 8 -21 -10 -32 -32 -18 -16 10 -15
11 6 6 17 -3 21 -2 13 6 -15 15 -43 2 -36 -16 9 -23 -37 -32 -53 -10 -15 20
-17 38 -4 30 5 -3 11 2 13 12 3 11 30 25 81 40 43 13 75 28 72 32 -3 5 -18 5
-33 0 -15 -5 -48 -15 -73 -24 -44 -13 -48 -13 -67 4 -11 10 -22 16 -25 13 -9
-8 -48 8 -42 18 4 5 11 9 16 9 6 0 7 -4 4 -10 -3 -5 -1 -10 5 -10 7 0 9 7 6
16 -4 12 -2 15 9 11 8 -4 17 -2 20 3 3 4 -7 7 -22 5 -25 -3 -26 -2 -8 11 10 8
23 14 29 14 5 0 7 2 4 5 -8 9 -68 -16 -62 -26 11 -18 -6 -29 -26 -17 -10 7
-16 16 -13 22 3 5 1 6 -5 2 -18 -11 2 -41 38 -56 23 -9 28 -15 18 -21 -7 -5 3
-6 25 -2 29 4 37 2 37 -10 0 -9 -4 -18 -9 -21 -5 -3 -11 -17 -13 -31 -3 -13
-1 -22 3 -19 5 3 9 -2 9 -10 0 -24 -17 -19 -36 9 -9 14 -22 25 -28 24 -27 -3
-37 3 -46 26 -5 14 -14 25 -20 25 -5 0 -9 5 -7 11 1 6 -6 13 -15 14 -22 4 -12
-22 13 -36 11 -5 19 -15 19 -22 0 -6 -14 3 -31 20 l-32 31 19 34 c22 37 124
96 189 108 22 4 43 8 46 9 3 0 13 -7 22 -17z m697 -22 c0 -5 4 -9 8 -7 4 1 32
-9 62 -23 l54 -25 -49 -5 -49 -5 -18 -55 c-12 -38 -17 -45 -15 -24 3 31 -11
40 -30 19 -4 -4 -2 -5 5 -1 9 5 12 -4 12 -35 0 -41 0 -41 -22 -27 -13 9 -24
25 -26 37 -2 14 -10 21 -20 19 -14 -2 -17 5 -16 37 0 22 4 53 8 69 6 25 10 28
36 22 17 -3 30 -1 30 4 0 6 7 10 15 10 8 0 15 -4 15 -10z m-226 -21 c31 -11
65 -32 76 -46 19 -25 19 -27 4 -45 -10 -10 -24 -17 -33 -16 -9 2 -16 -3 -16
-10 0 -14 -41 -41 -62 -42 -7 0 -13 6 -13 14 0 8 -5 18 -12 22 -7 5 -8 3 -3
-7 7 -12 6 -12 -7 -1 -13 10 -17 10 -20 0 -4 -10 -8 -10 -21 1 -10 7 -17 20
-17 27 0 8 -7 14 -16 14 -10 0 -14 -6 -10 -15 3 -8 2 -15 -3 -15 -5 0 -11 9
-14 20 -3 11 -1 18 4 14 5 -3 9 4 9 16 0 12 4 19 8 16 5 -3 6 8 4 25 -5 34 -7
33 49 14 46 -16 82 -43 74 -55 -2 -4 2 -16 10 -26 14 -18 14 -18 16 6 1 14 1
28 0 33 -3 17 28 5 34 -13 3 -11 10 -20 15 -20 4 0 3 11 -3 25 -8 16 -20 25
-34 25 -13 0 -23 6 -23 14 0 8 -5 18 -11 22 -8 4 -9 -1 -4 -16 5 -15 4 -20 -4
-16 -6 4 -11 14 -11 21 0 9 -6 12 -15 9 -8 -4 -27 -3 -43 1 l-27 8 25 7 c37
12 35 12 94 -11z m555 -91 c0 -29 -3 -47 -6 -39 -4 10 -9 8 -19 -10 -13 -23
-13 -23 -14 -2 0 12 -4 23 -9 25 -5 2 -6 18 -4 36 4 21 10 31 18 29 8 -4 10 3
7 21 -5 25 -4 26 11 10 12 -12 17 -33 16 -70z m-254 32 c3 -5 11 -10 16 -10 6
0 7 5 4 10 -3 6 3 10 14 10 24 0 26 -17 10 -54 -15 -32 -43 -45 -34 -16 4 12
2 20 -5 20 -6 0 -8 5 -5 10 3 6 1 10 -5 10 -7 0 -9 -8 -5 -19 10 -32 -10 -32
-24 1 -12 25 -11 32 0 39 18 11 26 11 34 -1z m-1343 -72 c2 -6 -1 -12 -7 -13
-5 0 -16 -4 -24 -9 -12 -8 -13 -2 -8 30 4 21 7 46 8 54 1 14 26 -35 31 -62z
m742 30 c-6 -10 -4 -10 7 0 21 20 67 15 79 -9 7 -11 14 -18 17 -15 11 11 43
-27 43 -50 0 -13 -9 -28 -20 -34 -11 -6 -20 -18 -20 -26 0 -14 -2 -14 -16 0
-8 9 -17 16 -19 16 -8 0 8 -35 19 -43 6 -5 -5 -7 -26 -5 -20 2 -35 1 -32 -3 2
-4 -15 -7 -38 -7 -36 -1 -46 5 -84 44 -24 25 -44 48 -44 52 1 14 61 73 83 82
33 13 59 12 51 -2z m436 -56 c0 -7 4 -11 9 -8 5 3 12 -2 16 -12 8 -23 6 -28
-11 -24 -7 2 -22 -2 -32 -7 -13 -7 -23 -6 -32 2 -8 7 -10 7 -7 1 4 -7 -2 -9
-18 -6 -14 2 -25 9 -25 14 0 5 5 6 12 2 7 -4 8 -3 4 5 -6 9 -11 9 -24 -1 -28
-23 7 32 36 57 25 21 28 22 49 6 12 -9 23 -22 23 -29z m306 33 c-3 -9 4 -21
18 -31 31 -19 40 -43 21 -50 -17 -7 -85 41 -85 60 0 16 21 36 38 36 8 0 12 -6
8 -15z m-1529 -35 c4 -8 7 -38 8 -66 1 -27 5 -56 10 -64 5 -8 8 -33 6 -57 -1
-25 2 -43 8 -43 6 0 7 7 4 17 -4 11 -3 14 5 9 8 -5 12 0 12 14 0 12 -4 18 -10
15 -5 -3 -10 1 -10 9 0 22 13 20 44 -9 14 -13 26 -21 26 -17 0 4 4 0 9 -8 11
-15 5 -30 -10 -30 -6 0 -7 5 -3 12 4 7 3 8 -5 4 -6 -4 -8 -12 -5 -18 5 -8 1
-9 -11 -4 -15 5 -16 4 -5 -9 11 -13 9 -14 -21 -1 -30 12 -35 21 -44 64 -13 64
-25 77 -21 21 2 -23 0 -54 -4 -68 -4 -15 -8 22 -9 92 -1 79 2 116 9 112 5 -3
10 1 10 10 0 9 -4 14 -9 11 -4 -3 -6 7 -3 22 3 16 7 21 9 12 3 -8 7 -22 10
-30z m1758 -20 c11 -9 28 -20 38 -23 24 -9 21 -22 -8 -35 -14 -7 -28 -19 -31
-27 -4 -8 -9 -13 -13 -11 -4 3 -12 -4 -19 -15 -18 -28 -5 -23 41 16 22 19 42
33 44 31 7 -7 -41 -85 -51 -83 -6 1 -10 -7 -9 -18 1 -19 1 -19 -11 -3 -16 21
-26 13 -27 -21 -1 -17 -3 -20 -6 -8 -2 9 -9 15 -14 12 -5 -4 -6 2 -2 12 6 16
5 16 -10 4 -12 -9 -17 -10 -17 -2 0 7 -4 9 -10 6 -5 -3 -10 1 -10 9 0 9 -5 16
-10 16 -13 0 -50 81 -43 93 3 4 25 -10 49 -33 24 -22 49 -40 56 -40 8 0 4 7
-7 16 -21 16 -26 35 -12 45 5 3 2 9 -7 12 -9 4 -15 1 -13 -5 1 -6 -4 -13 -12
-16 -9 -3 -11 0 -6 8 5 8 4 11 -2 7 -6 -4 -18 2 -27 11 -19 22 -9 40 44 71 32
19 36 19 60 4 14 -8 34 -23 45 -33z m-1645 -7 c0 -17 -24 -43 -39 -43 -6 0
-11 20 -11 45 l0 45 25 -16 c14 -9 25 -23 25 -31z m893 29 c28 -4 35 -16 17
-27 -5 -3 -10 -1 -10 6 0 10 -3 10 -12 1 -17 -17 -51 -16 -45 2 3 7 0 19 -6
26 -10 10 -8 11 8 5 11 -4 32 -10 48 -13z m-963 -3 c3 7 7 -7 8 -31 2 -40 16
-61 37 -55 8 3 35 46 41 64 0 2 19 -5 42 -14 24 -9 42 -23 43 -32 0 -9 3 -11
5 -4 3 7 35 -4 92 -31 48 -24 103 -48 124 -55 35 -12 36 -13 26 -47 -5 -19 -7
-43 -5 -52 3 -12 5 -10 6 6 1 20 4 21 21 12 17 -9 20 -8 19 12 0 13 -3 17 -6
11 -8 -21 -18 -15 -21 12 -2 28 18 34 41 10 8 -8 17 -11 21 -8 3 4 6 -3 6 -15
0 -12 4 -22 10 -22 5 0 7 7 4 15 -4 8 -1 15 5 15 6 0 11 -4 11 -10 0 -5 7 -6
17 -3 10 4 14 2 10 -4 -5 -7 0 -9 13 -6 16 4 20 0 21 -18 0 -22 1 -23 9 -4 7
17 9 16 10 -10 2 -30 2 -30 10 -5 5 17 8 19 9 8 1 -10 6 -18 12 -18 5 0 7 5 4
10 -3 6 -1 10 6 10 6 0 9 -8 6 -20 -3 -13 0 -20 9 -20 8 0 11 7 8 18 -5 14 -4
15 5 2 6 -8 11 -27 11 -42 0 -14 5 -28 12 -30 7 -3 8 -10 4 -17 -7 -11 -10
-11 -17 0 -6 10 -9 8 -9 -8 0 -17 4 -21 17 -16 11 4 14 3 9 -5 -4 -7 -14 -12
-21 -12 -9 0 -12 -6 -8 -17 4 -11 8 -12 11 -5 6 19 22 14 22 -8 0 -24 -13 -26
-34 -4 -15 14 -16 14 -16 -1 0 -26 -22 -40 -61 -40 -25 0 -35 4 -32 13 3 6 0
12 -6 12 -6 0 -11 -7 -11 -15 0 -17 -16 -20 -25 -6 -3 5 8 19 24 30 28 20 29
20 34 1 5 -19 47 -25 47 -7 0 4 5 5 10 2 6 -3 10 1 10 10 0 9 -4 13 -10 10 -5
-3 -10 1 -10 9 0 9 7 16 15 16 12 0 14 7 9 28 -4 21 -3 24 5 12 8 -11 11 -12
11 -2 0 7 -7 20 -15 28 -8 9 -15 24 -15 34 0 14 -5 18 -16 13 -9 -3 -20 0 -24
7 -5 8 -9 9 -14 1 -4 -6 -2 -11 3 -11 6 0 11 -9 11 -20 0 -11 -4 -20 -10 -20
-5 0 -7 8 -4 18 5 13 4 14 -4 3 -5 -7 -8 -34 -6 -59 5 -44 4 -45 -14 -29 -31
28 -49 20 -21 -9 l24 -26 -28 7 c-22 6 -26 4 -21 -9 4 -10 0 -18 -10 -22 -29
-11 -17 -23 29 -30 30 -4 45 -11 45 -21 0 -10 -6 -13 -17 -8 -10 4 -24 9 -30
12 -9 3 -13 -4 -13 -21 0 -14 -5 -26 -11 -26 -7 0 -10 12 -7 30 3 17 1 30 -4
30 -4 0 -8 -10 -8 -22 0 -19 -2 -20 -10 -8 -8 13 -10 13 -10 1 0 -12 -3 -12
-12 -3 -7 7 -18 12 -26 12 -8 0 -21 8 -29 18 -8 9 -12 11 -8 5 8 -17 0 -16
-17 0 -7 8 -27 18 -43 24 -21 7 -31 17 -32 34 -2 22 -2 22 6 4 8 -17 10 -14
10 15 1 26 -2 31 -9 20 -7 -11 -10 -5 -11 25 -2 37 -2 38 -6 8 -6 -50 -23 -39
-23 14 0 25 -2 44 -5 41 -3 -3 -6 -33 -6 -68 -1 -34 -5 -57 -9 -50 -4 6 -10
11 -14 11 -21 -3 -26 1 -26 20 0 11 -5 17 -10 14 -6 -4 -7 -11 -4 -17 4 -6 -2
-6 -15 1 -11 7 -21 18 -21 26 0 9 -6 12 -15 9 -8 -4 -15 -2 -15 3 0 8 -63 36
-83 38 -13 0 -26 27 -20 42 4 11 8 10 20 -4 8 -10 12 -12 8 -5 -3 6 -2 12 4
12 5 0 12 -10 14 -22 3 -15 4 -12 4 8 -1 22 -5 30 -14 27 -7 -3 -13 2 -13 12
0 27 35 13 38 -15 2 -14 7 -28 11 -33 9 -10 7 56 -3 72 -4 7 2 15 16 20 13 6
16 10 8 11 -13 0 -13 1 0 10 13 9 13 11 0 20 -11 7 -16 5 -18 -5 -4 -19 -6
-19 -42 0 -34 18 -35 21 -15 41 13 14 15 13 15 -3 0 -15 2 -16 10 -3 8 12 12
12 18 2 7 -9 15 -10 35 -3 23 9 27 16 26 48 l-1 38 -13 -40 -13 -40 2 42 c2
39 -13 53 -15 15 -1 -9 -5 -3 -10 13 -8 30 -8 30 -5 -5 2 -19 7 -43 11 -53 7
-17 6 -18 -14 -6 -11 8 -21 22 -21 32 0 10 -5 15 -10 12 -6 -4 -8 -10 -5 -15
3 -4 -7 -11 -20 -14 -16 -4 -23 -11 -20 -19 4 -7 -3 -1 -14 13 -11 14 -19 30
-16 37 2 7 0 15 -6 19 -7 4 -7 10 0 18 6 7 6 17 1 26 -5 8 -6 19 -3 24 4 6 8
5 11 -3 3 -10 6 -10 12 -2z m1350 -89 c-8 -5 -24 0 -41 12 -15 11 -32 18 -37
14 -6 -4 -6 7 1 30 l11 36 40 -42 c29 -32 36 -44 26 -50z m109 53 c53 -40 65
-59 31 -50 -13 3 -20 0 -20 -9 0 -7 -9 -18 -20 -24 -16 -9 -18 -8 -14 5 4 11
0 15 -16 15 -13 0 -42 21 -72 50 l-50 50 55 0 c47 0 61 -5 106 -37z m-400 -12
c11 -7 4 -14 -28 -31 -24 -12 -41 -24 -38 -27 3 -2 25 7 50 21 44 26 58 26 56
-3 0 -12 -3 -11 -9 4 -7 17 -9 14 -11 -15 -1 -24 -3 -28 -6 -12 -2 12 -8 22
-13 22 -5 0 -7 -7 -4 -15 3 -8 -1 -29 -10 -46 -9 -18 -16 -42 -17 -53 0 -13
-3 -16 -6 -7 -5 11 -7 11 -14 0 -7 -11 -9 -10 -9 4 0 10 7 25 15 33 8 9 14 23
14 32 -1 15 -2 15 -6 0 -2 -10 -11 -18 -18 -18 -8 0 -16 -14 -18 -32 -2 -18
-4 -8 -3 21 1 54 0 55 -39 78 -59 33 -68 28 -13 -8 38 -25 47 -36 43 -53 -3
-11 -7 -35 -8 -52 -2 -29 -4 -31 -25 -23 -45 17 -62 30 -62 47 0 15 -2 15 -10
2 -8 -13 -10 -12 -10 3 0 29 22 107 32 113 27 17 147 28 167 15z m156 -30 c-2
-5 12 -12 32 -16 50 -9 90 -31 103 -56 9 -16 6 -28 -22 -66 -33 -46 -58 -65
-58 -43 0 6 11 26 26 45 33 43 15 54 -25 14 -29 -28 -36 -42 -32 -62 1 -5 -3
-6 -8 -3 -5 4 -13 1 -16 -4 -5 -8 -13 -6 -25 5 -9 8 -27 17 -39 20 -29 5 -81
43 -81 59 0 13 14 31 76 99 30 31 38 36 55 27 11 -6 17 -15 14 -19z m-576 -10
c8 -5 11 -16 7 -26 -5 -14 -14 -16 -42 -12 -43 7 -48 11 -41 32 7 16 53 20 76
6z m744 -39 l-6 -23 -15 22 c-12 18 -12 23 -1 30 19 11 29 -2 22 -29z m154 11
c3 -10 16 -41 28 -70 20 -44 21 -54 9 -64 -8 -6 -14 -8 -14 -4 0 4 -6 2 -14
-4 -10 -8 -16 -9 -21 -1 -8 13 -55 13 -55 0 0 -5 9 -10 20 -10 11 0 20 -5 20
-10 0 -16 -43 -29 -58 -17 -9 7 -11 6 -6 -7 13 -35 -4 -13 -31 39 -31 58 -45
69 -45 34 0 -11 4 -18 10 -14 5 3 16 -8 25 -24 19 -38 19 -55 -1 -18 -8 15
-19 27 -25 27 -6 0 -6 -6 0 -19 9 -16 8 -18 -10 -14 -11 3 -18 11 -15 18 2 6
0 18 -4 25 -17 28 52 100 86 90 4 -1 10 4 14 10 8 13 60 48 73 49 4 1 10 -7
14 -16z m-907 -243 c4 0 10 -9 13 -20 3 -11 1 -20 -4 -20 -5 0 -9 7 -9 15 0 8
-8 15 -17 15 -15 0 -16 -2 -3 -10 10 -6 11 -10 3 -10 -7 0 -13 -5 -13 -11 0
-5 5 -7 10 -4 6 3 10 -1 10 -9 0 -9 -6 -16 -12 -17 -10 0 -10 -2 0 -6 13 -5 7
-23 -9 -23 -5 0 -9 25 -9 56 0 47 3 55 16 50 9 -3 19 -6 24 -6z m81 -110 c5 0
9 -7 9 -15 0 -8 6 -15 13 -16 6 0 3 -4 -8 -9 -11 -5 -14 -9 -7 -9 6 -1 12 -8
12 -16 0 -23 -47 2 -54 29 -10 36 -7 49 10 42 9 -3 20 -6 25 -6z m-49 -36 c5
-3 8 -14 8 -25 0 -11 5 -17 10 -14 6 3 10 2 10 -3 0 -6 -7 -12 -15 -16 -8 -3
-15 -16 -16 -28 0 -23 0 -23 -10 2 -7 18 -7 26 2 29 8 2 7 6 -2 12 -12 8 -11
11 1 19 13 8 12 10 -4 10 -16 0 -18 -6 -13 -40 3 -22 1 -40 -4 -40 -5 0 -9 22
-9 50 0 38 -3 48 -14 44 -8 -3 -17 0 -21 7 -6 9 2 10 31 4 21 -4 42 -9 46 -11z
m78 -89 c0 -13 3 -30 6 -39 3 -9 1 -16 -5 -16 -6 0 -11 8 -11 18 0 14 -2 15
-10 2 -8 -12 -10 -12 -15 2 -4 9 -13 14 -21 11 -10 -4 -14 3 -14 21 0 16 6 26
15 26 8 0 15 5 15 10 0 7 6 7 20 0 11 -6 20 -21 20 -35z"/>
<path d="M1668 2137 c-22 -18 -29 -55 -11 -61 23 -9 26 -7 13 10 -11 12 -11
18 2 30 14 14 18 12 39 -25 29 -52 37 -46 10 7 -25 49 -33 55 -53 39z"/>
<path d="M392 1943 c13 -29 26 -53 30 -53 11 0 -10 52 -32 80 -18 23 -18 20 2
-27z"/>
<path d="M545 1759 c4 -6 13 -8 21 -5 7 3 18 -3 24 -14 12 -23 68 -81 95 -100
11 -7 4 2 -15 22 -19 19 -48 51 -63 71 -16 21 -37 37 -48 37 -12 0 -17 -4 -14
-11z"/>
<path d="M690 1715 c0 -6 5 -16 12 -23 16 -16 -4 -16 -22 1 -8 6 -6 2 4 -10
17 -21 36 -23 36 -4 0 12 -29 47 -30 36z"/>
<path d="M790 1580 c0 -14 38 -32 45 -21 3 6 -3 15 -14 20 -24 14 -31 14 -31
1z"/>
<path d="M984 1539 c-3 -6 -4 -11 -3 -12 2 -1 14 -8 27 -15 18 -10 22 -10 22
1 0 18 -37 39 -46 26z"/>
<path d="M1040 1475 c0 -8 4 -15 9 -15 5 0 16 -3 25 -6 26 -10 18 12 -9 24
-21 10 -25 9 -25 -3z"/>
<path d="M1452 1341 c-18 -11 41 -33 64 -24 25 9 -6 23 -35 16 -17 -4 -22 -2
-17 6 8 13 6 14 -12 2z"/>
<path d="M1567 1299 c3 -10 19 -23 35 -28 43 -15 48 -13 15 5 -15 8 -25 19
-22 23 2 5 -4 11 -14 14 -14 3 -17 0 -14 -14z"/>
<path d="M1460 1302 c0 -5 23 -18 50 -29 28 -12 50 -18 50 -13 0 4 -8 10 -17
13 -10 4 -33 13 -50 21 -18 8 -33 12 -33 8z"/>
<path d="M1689 1210 c24 -11 55 -23 70 -26 14 -2 4 4 -24 16 -68 28 -100 35
-46 10z"/>
<path d="M2626 1195 c-9 -24 -8 -27 6 -19 8 5 9 2 5 -9 -4 -10 -10 -24 -13
-32 -3 -8 -1 -15 5 -15 6 0 8 -8 5 -17 -5 -15 -4 -16 5 -3 6 8 8 23 5 34 -4
12 -2 16 5 12 7 -5 7 3 -1 26 -14 42 -14 42 -22 23z"/>
<path d="M1515 1180 c-3 -5 -4 -10 -1 -10 3 0 1 -11 -4 -25 -6 -16 -6 -25 0
-25 6 0 10 10 10 21 0 16 5 20 20 16 11 -3 20 -1 20 4 0 5 -10 9 -22 10 -22 1
-22 1 2 9 23 7 23 8 3 9 -12 1 -25 -3 -28 -9z"/>
<path d="M2596 1164 c-3 -9 -1 -35 5 -58 6 -22 17 -72 24 -111 7 -38 13 -56
14 -40 1 26 -19 125 -35 179 -4 12 -2 16 5 12 6 -4 11 -1 11 8 0 22 -17 29
-24 10z"/>
<path d="M1675 1090 c-3 -5 -3 -10 2 -11 4 0 -1 -5 -12 -10 -18 -9 -18 -9 3
-5 19 4 21 2 11 -10 -9 -11 -8 -14 5 -14 18 0 22 25 6 35 -6 4 -8 11 -5 16 4
5 4 9 1 9 -3 0 -8 -4 -11 -10z"/>
<path d="M1656 1023 c-4 -5 -13 -8 -18 -8 -6 0 -13 -6 -16 -13 -2 -8 2 -10 14
-5 13 5 16 3 11 -10 -4 -11 1 -18 14 -22 22 -7 26 -35 4 -35 -9 0 -12 -6 -9
-15 10 -25 22 -17 29 18 4 17 12 39 18 47 9 12 9 13 -3 3 -8 -7 -20 -13 -28
-13 -12 0 -12 3 -1 16 10 13 10 17 0 24 -11 6 -11 9 0 13 8 3 9 6 3 6 -6 1
-14 -2 -18 -6z"/>
<path d="M1807 1006 c-4 -10 -6 -41 -5 -69 1 -47 2 -48 5 -12 3 22 9 42 14 46
6 3 6 15 1 29 -8 20 -9 21 -15 6z"/>
<path d="M1980 997 c0 -1 7 -57 15 -122 8 -66 15 -124 15 -128 0 -5 5 -5 10
-2 6 3 10 1 10 -5 0 -6 5 -8 10 -5 6 3 10 2 10 -4 0 -5 -6 -12 -12 -14 -7 -3
-5 -6 6 -6 20 -1 21 -11 -3 172 -10 78 -23 104 -19 38 2 -28 -1 -45 -9 -48
-10 -3 -13 13 -13 61 0 37 -4 66 -10 66 -5 0 -10 -1 -10 -3z m62 -197 c4 -24
6 -46 4 -48 -7 -7 -36 56 -36 78 0 38 24 15 32 -30z"/>
<path d="M2250 980 c0 -19 20 -27 33 -13 8 7 -11 33 -24 33 -5 0 -9 -9 -9 -20z"/>
<path d="M1821 918 c0 -27 -5 -48 -11 -48 -5 0 -10 -8 -10 -17 0 -15 2 -14 15
3 13 18 14 18 8 -4 -3 -13 1 -30 9 -40 9 -9 18 -24 21 -32 5 -13 6 -13 6 0 1
8 -6 28 -14 44 -12 22 -12 32 -4 42 8 10 8 18 1 27 -6 6 -12 26 -15 42 -3 22
-4 17 -6 -17z"/>
<path d="M2520 919 c-16 -29 -5 -56 15 -39 17 14 20 46 6 55 -6 3 -15 -4 -21
-16z"/>
<path d="M1556 921 c-8 -12 10 -57 26 -67 10 -6 10 -4 -1 9 -11 14 -11 17 0
17 10 1 8 5 -5 15 -10 7 -15 18 -11 24 3 6 4 11 1 11 -3 0 -7 -4 -10 -9z"/>
<path d="M1955 905 c3 -16 7 -56 9 -88 2 -32 7 -62 11 -65 10 -9 -5 138 -16
163 -7 15 -8 13 -4 -10z"/>
<path d="M1697 863 c3 -7 -2 -13 -12 -13 -9 0 -13 -4 -10 -10 8 -14 36 -13 33
1 -2 6 3 14 11 17 9 3 11 0 6 -8 -5 -9 -4 -11 3 -6 20 12 13 31 -12 31 -15 0
-22 -5 -19 -12z"/>
<path d="M2127 805 c3 -33 9 -69 14 -80 10 -25 -1 81 -12 115 -5 15 -6 0 -2
-35z"/>
<path d="M2105 787 c1 -26 5 -50 9 -54 8 -8 6 34 -4 72 -7 25 -8 21 -5 -18z"/>
<path d="M2529 806 c10 -11 8 -15 -6 -19 -17 -4 -17 -5 0 -6 17 -1 17 -2 2
-17 -9 -9 -14 -19 -11 -21 3 -3 12 2 22 11 17 18 12 66 -7 66 -8 0 -8 -4 0
-14z"/>
<path d="M522 2079 c-10 -16 -10 -24 1 -39 8 -11 17 -17 20 -13 9 9 9 24 0 21
-12 -4 -15 5 -7 25 9 26 0 30 -14 6z"/>
<path d="M580 2050 c0 -5 5 -10 12 -10 6 0 2 -10 -10 -23 -12 -13 -22 -26 -22
-28 0 -9 30 -6 31 3 1 4 2 12 3 17 0 5 4 12 8 16 8 9 -1 35 -13 35 -5 0 -9 -4
-9 -10z"/>
<path d="M1430 1981 c0 -6 7 -14 15 -17 8 -4 13 -10 10 -14 -3 -5 7 -5 22 -1
15 4 29 13 31 20 3 10 0 11 -18 1 -18 -9 -25 -8 -41 6 -12 10 -19 12 -19 5z"/>
<path d="M925 1941 c-3 -5 -1 -13 5 -16 8 -5 8 -11 0 -20 -9 -11 -7 -12 10 -8
29 8 34 20 10 28 -11 4 -18 11 -15 16 4 5 4 9 1 9 -3 0 -7 -4 -11 -9z"/>
<path d="M695 1900 c-16 -7 -17 -9 -3 -9 9 -1 21 -9 27 -18 8 -15 12 -16 22
-5 10 9 10 12 1 12 -7 0 -11 5 -9 11 3 15 -14 19 -38 9z"/>
<path d="M457 1723 c-3 -15 -1 -35 4 -43 6 -12 9 -9 10 10 1 15 5 6 9 -20 7
-44 7 -44 8 -9 1 20 -4 49 -12 63 l-14 27 -5 -28z"/>
<path d="M505 1658 c-6 -45 -4 -61 9 -80 16 -22 16 -22 15 22 -1 38 -2 41 -9
20 -8 -22 -9 -21 -7 10 1 24 6 34 16 32 11 -2 12 0 4 10 -6 7 -13 20 -15 28
-3 8 -9 -11 -13 -42z"/>
<path d="M571 1598 c-1 -23 -9 -46 -21 -58 -11 -11 -17 -26 -14 -35 8 -21 36
-19 33 3 -1 9 1 33 5 54 4 20 6 44 3 55 -3 10 -5 1 -6 -19z"/>
<path d="M430 1574 c-14 -36 -12 -60 5 -74 13 -10 15 -9 15 11 0 19 -2 21 -10
9 -8 -12 -10 -9 -10 13 0 15 7 30 15 33 8 4 15 12 15 20 0 23 -20 16 -30 -12z"/>
<path d="M506 1499 c-10 -51 -7 -86 9 -99 10 -9 15 -9 15 -1 0 6 -5 11 -11 11
-8 0 -10 18 -5 60 7 64 3 81 -8 29z"/>
<path d="M633 1483 c-18 -7 -16 -43 2 -43 9 0 15 9 15 25 0 14 -1 25 -2 24 -2
0 -9 -3 -15 -6z"/>
<path d="M583 1453 c-10 -21 -10 -29 2 -45 9 -14 11 -28 5 -44 -6 -15 -6 -24
0 -24 11 0 13 14 12 84 -2 59 -4 62 -19 29z"/>
<path d="M1222 1853 c-16 -6 -62 -48 -62 -57 0 -4 17 -5 38 -2 20 3 43 5 50 5
6 1 12 9 12 20 0 22 -20 40 -38 34z"/>
<path d="M1360 1845 c-7 -9 -9 -23 -4 -37 4 -13 7 -27 5 -33 -1 -5 3 -5 9 1 8
8 9 18 2 31 -7 12 -7 25 -1 36 12 21 6 22 -11 2z"/>
<path d="M810 1686 c0 -8 42 -76 46 -76 12 0 1 33 -15 49 -11 11 -17 22 -13
25 3 3 0 6 -6 6 -7 0 -12 -2 -12 -4z"/>
<path d="M1508 1761 c-15 -5 -16 -10 -5 -30 15 -29 29 -32 33 -7 4 28 -8 44
-28 37z"/>
<path d="M1544 1634 c-4 -11 -9 -23 -12 -27 -2 -5 5 -4 15 2 11 6 23 8 26 5 3
-3 18 2 34 11 l28 16 -28 -6 c-16 -3 -35 -1 -43 6 -11 9 -15 7 -20 -7z"/>
<path d="M993 1645 c-18 -8 -33 -20 -33 -26 0 -7 3 -9 6 -6 4 3 16 1 27 -5 17
-9 19 -8 13 7 -4 11 0 22 11 31 23 17 16 17 -24 -1z"/>
<path d="M2003 1650 c2 -8 12 -14 21 -14 9 1 16 -2 16 -7 0 -5 7 -6 15 -3 21
9 10 22 -17 20 -13 -1 -27 3 -31 9 -5 6 -7 4 -4 -5z"/>
<path d="M1970 1614 c6 -14 6 -26 0 -29 -6 -4 -10 -1 -10 6 0 7 -3 10 -6 6 -3
-3 -2 -13 4 -22 8 -16 9 -16 15 0 4 9 10 14 15 11 4 -2 14 4 21 16 7 11 8 17
3 14 -6 -3 -12 -1 -14 6 -2 6 -11 12 -20 14 -14 2 -15 -2 -8 -22z"/>
<path d="M1490 1543 c0 -6 7 -16 15 -23 12 -10 11 -19 -11 -62 -14 -27 -23
-52 -21 -55 3 -2 8 5 12 18 6 17 9 19 17 8 8 -11 9 -10 4 4 -3 11 0 17 9 17 9
0 14 8 12 23 -2 19 3 22 33 25 53 4 81 12 76 21 -3 5 -16 6 -30 4 -13 -3 -34
0 -46 7 -15 8 -20 8 -16 1 11 -17 -15 -13 -36 6 -10 9 -18 11 -18 6z"/>
<path d="M931 1383 c0 -18 1 -33 3 -33 2 0 11 -2 18 -5 10 -4 14 5 15 32 l2
38 -12 -30 -11 -30 -7 30 -7 30 -1 -32z"/>
<path d="M998 1335 c-4 -18 1 -30 15 -40 20 -14 37 -12 37 5 0 5 -11 21 -24
35 l-24 25 -4 -25z"/>
<path d="M1240 1254 c0 -16 -4 -23 -11 -18 -7 4 -10 1 -7 -7 3 -8 18 -14 34
-14 33 -1 47 -30 17 -38 -17 -4 -17 -5 0 -6 10 0 20 6 23 14 5 12 9 13 20 4 8
-7 17 -9 21 -5 3 3 1 6 -5 6 -7 0 -12 7 -12 15 0 8 -5 15 -11 15 -7 0 -9 9 -6
21 4 15 2 19 -10 15 -8 -3 -17 -6 -19 -6 -2 0 -4 -7 -4 -15 0 -8 -5 -15 -11
-15 -7 0 -10 12 -7 30 3 17 1 30 -4 30 -4 0 -8 -12 -8 -26z"/>
<path d="M890 1228 c0 -17 3 -19 9 -9 6 9 11 10 15 2 4 -6 0 -14 -8 -17 -9 -3
-16 -16 -15 -28 0 -20 1 -20 9 -1 8 18 9 18 10 -5 1 -14 4 -19 7 -12 9 23 23
12 23 -19 0 -16 4 -28 9 -25 5 3 7 15 4 26 -4 16 -2 19 10 14 9 -3 16 -9 15
-12 -1 -4 4 -18 9 -32 l11 -25 5 25 c13 61 15 87 6 100 -6 11 -9 0 -10 -35 -1
-27 -3 -43 -6 -34 -2 10 -14 20 -26 24 -21 6 -22 6 -2 15 11 5 15 9 8 9 -6 1
-19 4 -29 8 -12 4 -15 3 -10 -5 4 -7 3 -12 -3 -12 -15 0 -23 18 -11 25 15 9
12 19 -10 33 -18 11 -20 10 -20 -10z"/>
<path d="M1098 1243 c-21 -5 -23 -26 -5 -41 15 -13 47 8 47 32 0 16 -9 18 -42
9z"/>
<path d="M1180 1136 c0 -35 21 -63 40 -51 15 9 12 32 -6 60 -22 34 -34 31 -34
-9z"/>
<path d="M1140 1063 c1 -15 27 -43 42 -43 8 0 19 -5 26 -12 9 -9 12 -7 12 11
0 12 -4 19 -10 16 -14 -9 -50 4 -47 17 1 6 -4 13 -10 15 -7 3 -13 1 -13 -4z"/>
<path d="M2189 1468 c15 -19 2 -25 -16 -7 -7 7 -13 7 -17 1 -11 -18 19 -33 38
-19 17 12 17 14 -1 28 -16 13 -17 13 -4 -3z"/>
<path d="M1905 1379 c-28 -28 -44 -49 -36 -47 8 2 17 -6 19 -16 3 -14 0 -17
-12 -13 -24 9 -19 -1 7 -14 12 -6 19 -8 15 -4 -4 4 -3 16 3 26 7 14 6 19 -2
19 -9 0 -9 3 0 14 6 7 24 12 40 11 30 -2 35 11 13 37 -9 11 -9 17 0 26 7 7 10
12 7 12 -3 0 -27 -23 -54 -51z m50 -9 c-3 -5 -13 -7 -23 -5 -9 1 -26 -5 -37
-14 -11 -8 -7 -1 9 16 22 25 33 30 43 22 7 -6 11 -15 8 -19z"/>
<path d="M2065 1370 c3 -6 1 -11 -4 -11 -26 -3 -30 -4 -36 -11 -4 -4 -13 -4
-20 -2 -17 7 -26 -8 -14 -26 6 -10 9 -11 9 -2 0 6 5 12 11 12 5 0 7 -4 4 -10
-7 -12 43 6 62 22 17 14 16 25 -3 32 -8 3 -12 2 -9 -4z"/>
<path d="M1949 1297 c0 -1 -2 -10 -4 -19 -5 -27 10 -30 30 -8 10 11 16 20 14
21 -2 0 -12 2 -21 4 -10 2 -18 3 -19 2z"/>
<path d="M2284 1346 c-3 -8 -12 -12 -20 -9 -8 3 -14 0 -14 -5 0 -16 18 -24 26
-11 5 8 9 8 14 -1 5 -8 7 -3 7 13 -2 30 -5 33 -13 13z"/>
</g>
</svg>
